<mxfile host="app.diagrams.net" modified="2023-12-19T15:30:26.465Z" agent="Mozilla/5.0 (Windows NT 10.0; Win64; x64) AppleWebKit/537.36 (KHTML, like Gecko) Chrome/120.0.0.0 Safari/537.36 Edg/120.0.0.0" etag="uEqFbboPyrWzgmPgAKng" version="22.1.11" type="device">
  <diagram id="C5RBs43oDa-KdzZeNtuy" name="Page-1">
    <mxGraphModel dx="2032" dy="683" grid="1" gridSize="10" guides="1" tooltips="1" connect="1" arrows="1" fold="1" page="1" pageScale="1" pageWidth="827" pageHeight="1169" math="0" shadow="0">
      <root>
        <mxCell id="WIyWlLk6GJQsqaUBKTNV-0" />
        <mxCell id="WIyWlLk6GJQsqaUBKTNV-1" parent="WIyWlLk6GJQsqaUBKTNV-0" />
        <mxCell id="cdMNv2cXZE7cJ5Rc2gCe-1" value="UserService&lt;span style=&quot;white-space: pre;&quot;&gt;&#x9;&lt;/span&gt;" style="swimlane;fontStyle=0;childLayout=stackLayout;horizontal=1;startSize=26;fillColor=none;horizontalStack=0;resizeParent=1;resizeParentMax=0;resizeLast=0;collapsible=1;marginBottom=0;whiteSpace=wrap;html=1;" parent="WIyWlLk6GJQsqaUBKTNV-1" vertex="1">
          <mxGeometry x="180" y="210" width="140" height="52" as="geometry" />
        </mxCell>
        <mxCell id="cdMNv2cXZE7cJ5Rc2gCe-2" value="@Service" style="text;strokeColor=none;fillColor=none;align=left;verticalAlign=top;spacingLeft=4;spacingRight=4;overflow=hidden;rotatable=0;points=[[0,0.5],[1,0.5]];portConstraint=eastwest;whiteSpace=wrap;html=1;" parent="cdMNv2cXZE7cJ5Rc2gCe-1" vertex="1">
          <mxGeometry y="26" width="140" height="26" as="geometry" />
        </mxCell>
        <mxCell id="cdMNv2cXZE7cJ5Rc2gCe-9" value="KeepAliveController" style="swimlane;fontStyle=0;childLayout=stackLayout;horizontal=1;startSize=26;fillColor=none;horizontalStack=0;resizeParent=1;resizeParentMax=0;resizeLast=0;collapsible=1;marginBottom=0;whiteSpace=wrap;html=1;" parent="WIyWlLk6GJQsqaUBKTNV-1" vertex="1">
          <mxGeometry x="440" y="320" width="140" height="52" as="geometry">
            <mxRectangle x="110" y="360" width="140" height="30" as="alternateBounds" />
          </mxGeometry>
        </mxCell>
        <mxCell id="cdMNv2cXZE7cJ5Rc2gCe-10" value="@RestController" style="text;strokeColor=none;fillColor=none;align=left;verticalAlign=top;spacingLeft=4;spacingRight=4;overflow=hidden;rotatable=0;points=[[0,0.5],[1,0.5]];portConstraint=eastwest;whiteSpace=wrap;html=1;" parent="cdMNv2cXZE7cJ5Rc2gCe-9" vertex="1">
          <mxGeometry y="26" width="140" height="26" as="geometry" />
        </mxCell>
        <mxCell id="cdMNv2cXZE7cJ5Rc2gCe-15" value="UserController" style="swimlane;fontStyle=0;childLayout=stackLayout;horizontal=1;startSize=26;fillColor=none;horizontalStack=0;resizeParent=1;resizeParentMax=0;resizeLast=0;collapsible=1;marginBottom=0;whiteSpace=wrap;html=1;" parent="WIyWlLk6GJQsqaUBKTNV-1" vertex="1">
          <mxGeometry x="440" y="210" width="140" height="52" as="geometry" />
        </mxCell>
        <mxCell id="cdMNv2cXZE7cJ5Rc2gCe-16" value="@RestController" style="text;strokeColor=none;fillColor=none;align=left;verticalAlign=top;spacingLeft=4;spacingRight=4;overflow=hidden;rotatable=0;points=[[0,0.5],[1,0.5]];portConstraint=eastwest;whiteSpace=wrap;html=1;" parent="cdMNv2cXZE7cJ5Rc2gCe-15" vertex="1">
          <mxGeometry y="26" width="140" height="26" as="geometry" />
        </mxCell>
        <mxCell id="cdMNv2cXZE7cJ5Rc2gCe-17" value="PostService&lt;span style=&quot;white-space: pre;&quot;&gt;&#x9;&lt;/span&gt;" style="swimlane;fontStyle=0;childLayout=stackLayout;horizontal=1;startSize=26;fillColor=none;horizontalStack=0;resizeParent=1;resizeParentMax=0;resizeLast=0;collapsible=1;marginBottom=0;whiteSpace=wrap;html=1;" parent="WIyWlLk6GJQsqaUBKTNV-1" vertex="1">
          <mxGeometry x="180" y="428" width="140" height="52" as="geometry" />
        </mxCell>
        <mxCell id="cdMNv2cXZE7cJ5Rc2gCe-18" value="@Service" style="text;strokeColor=none;fillColor=none;align=left;verticalAlign=top;spacingLeft=4;spacingRight=4;overflow=hidden;rotatable=0;points=[[0,0.5],[1,0.5]];portConstraint=eastwest;whiteSpace=wrap;html=1;" parent="cdMNv2cXZE7cJ5Rc2gCe-17" vertex="1">
          <mxGeometry y="26" width="140" height="26" as="geometry" />
        </mxCell>
        <mxCell id="cdMNv2cXZE7cJ5Rc2gCe-21" value="PostController" style="swimlane;fontStyle=0;childLayout=stackLayout;horizontal=1;startSize=26;fillColor=none;horizontalStack=0;resizeParent=1;resizeParentMax=0;resizeLast=0;collapsible=1;marginBottom=0;whiteSpace=wrap;html=1;" parent="WIyWlLk6GJQsqaUBKTNV-1" vertex="1">
          <mxGeometry x="440" y="428" width="140" height="52" as="geometry" />
        </mxCell>
        <mxCell id="cdMNv2cXZE7cJ5Rc2gCe-22" value="@RestController" style="text;strokeColor=none;fillColor=none;align=left;verticalAlign=top;spacingLeft=4;spacingRight=4;overflow=hidden;rotatable=0;points=[[0,0.5],[1,0.5]];portConstraint=eastwest;whiteSpace=wrap;html=1;" parent="cdMNv2cXZE7cJ5Rc2gCe-21" vertex="1">
          <mxGeometry y="26" width="140" height="26" as="geometry" />
        </mxCell>
        <mxCell id="cdMNv2cXZE7cJ5Rc2gCe-23" value="Post" style="html=1;whiteSpace=wrap;" parent="WIyWlLk6GJQsqaUBKTNV-1" vertex="1">
          <mxGeometry x="-70" y="430" width="140" height="50" as="geometry" />
        </mxCell>
        <mxCell id="cdMNv2cXZE7cJ5Rc2gCe-24" value="User" style="html=1;whiteSpace=wrap;" parent="WIyWlLk6GJQsqaUBKTNV-1" vertex="1">
          <mxGeometry x="-70" y="211" width="140" height="50" as="geometry" />
        </mxCell>
        <mxCell id="BtG-tf63-TLNFFF7PTQk-0" value="PUT" style="rounded=0;whiteSpace=wrap;html=1;" parent="WIyWlLk6GJQsqaUBKTNV-1" vertex="1">
          <mxGeometry x="940" y="262" width="120" height="39.5" as="geometry" />
        </mxCell>
        <mxCell id="BtG-tf63-TLNFFF7PTQk-1" value="POST" style="rounded=0;whiteSpace=wrap;html=1;" parent="WIyWlLk6GJQsqaUBKTNV-1" vertex="1">
          <mxGeometry x="940" y="390.5" width="120" height="39.5" as="geometry" />
        </mxCell>
        <mxCell id="BtG-tf63-TLNFFF7PTQk-2" value="GET" style="rounded=0;whiteSpace=wrap;html=1;" parent="WIyWlLk6GJQsqaUBKTNV-1" vertex="1">
          <mxGeometry x="940" y="510" width="120" height="42.5" as="geometry" />
        </mxCell>
        <mxCell id="BtG-tf63-TLNFFF7PTQk-3" value="DELETE" style="rounded=0;whiteSpace=wrap;html=1;" parent="WIyWlLk6GJQsqaUBKTNV-1" vertex="1">
          <mxGeometry x="940" y="130" width="120" height="40" as="geometry" />
        </mxCell>
        <mxCell id="BtG-tf63-TLNFFF7PTQk-5" value="" style="endArrow=none;html=1;rounded=0;entryX=0;entryY=0.5;entryDx=0;entryDy=0;exitX=1;exitY=0.5;exitDx=0;exitDy=0;startArrow=open;startFill=0;endFill=0;" parent="WIyWlLk6GJQsqaUBKTNV-1" source="cdMNv2cXZE7cJ5Rc2gCe-24" target="cdMNv2cXZE7cJ5Rc2gCe-1" edge="1">
          <mxGeometry width="50" height="50" relative="1" as="geometry">
            <mxPoint x="110" y="290" as="sourcePoint" />
            <mxPoint x="160" y="240" as="targetPoint" />
          </mxGeometry>
        </mxCell>
        <mxCell id="BtG-tf63-TLNFFF7PTQk-6" value="" style="endArrow=none;html=1;rounded=0;entryX=0;entryY=0.5;entryDx=0;entryDy=0;exitX=1;exitY=0.5;exitDx=0;exitDy=0;startArrow=diamondThin;startFill=1;endFill=0;" parent="WIyWlLk6GJQsqaUBKTNV-1" source="cdMNv2cXZE7cJ5Rc2gCe-1" target="cdMNv2cXZE7cJ5Rc2gCe-15" edge="1">
          <mxGeometry width="50" height="50" relative="1" as="geometry">
            <mxPoint x="170" y="246" as="sourcePoint" />
            <mxPoint x="210" y="246" as="targetPoint" />
          </mxGeometry>
        </mxCell>
        <mxCell id="BtG-tf63-TLNFFF7PTQk-7" value="" style="endArrow=none;html=1;rounded=0;entryX=0;entryY=0.5;entryDx=0;entryDy=0;exitX=1;exitY=0.5;exitDx=0;exitDy=0;endFill=0;startArrow=open;startFill=0;" parent="WIyWlLk6GJQsqaUBKTNV-1" source="cdMNv2cXZE7cJ5Rc2gCe-23" target="cdMNv2cXZE7cJ5Rc2gCe-17" edge="1">
          <mxGeometry width="50" height="50" relative="1" as="geometry">
            <mxPoint x="140" y="416" as="sourcePoint" />
            <mxPoint x="180" y="416" as="targetPoint" />
          </mxGeometry>
        </mxCell>
        <mxCell id="BtG-tf63-TLNFFF7PTQk-8" value="" style="endArrow=none;html=1;rounded=0;entryX=0;entryY=0.5;entryDx=0;entryDy=0;exitX=1;exitY=0.5;exitDx=0;exitDy=0;startArrow=diamondThin;startFill=1;endFill=0;endSize=7;" parent="WIyWlLk6GJQsqaUBKTNV-1" source="cdMNv2cXZE7cJ5Rc2gCe-17" target="cdMNv2cXZE7cJ5Rc2gCe-21" edge="1">
          <mxGeometry width="50" height="50" relative="1" as="geometry">
            <mxPoint x="340" y="416" as="sourcePoint" />
            <mxPoint x="380" y="416" as="targetPoint" />
          </mxGeometry>
        </mxCell>
        <mxCell id="BtG-tf63-TLNFFF7PTQk-9" value="" style="endArrow=classic;html=1;rounded=0;entryX=0;entryY=0.5;entryDx=0;entryDy=0;exitX=1.002;exitY=0.314;exitDx=0;exitDy=0;strokeColor=#FF6666;exitPerimeter=0;" parent="WIyWlLk6GJQsqaUBKTNV-1" source="cdMNv2cXZE7cJ5Rc2gCe-16" target="BtG-tf63-TLNFFF7PTQk-1" edge="1">
          <mxGeometry width="50" height="50" relative="1" as="geometry">
            <mxPoint x="600" y="180" as="sourcePoint" />
            <mxPoint x="660" y="270" as="targetPoint" />
            <Array as="points">
              <mxPoint x="760" y="244" />
              <mxPoint x="760" y="410" />
            </Array>
          </mxGeometry>
        </mxCell>
        <mxCell id="BtG-tf63-TLNFFF7PTQk-10" value="" style="endArrow=classic;html=1;rounded=0;entryX=0;entryY=0.5;entryDx=0;entryDy=0;exitX=1;exitY=0;exitDx=0;exitDy=0;strokeColor=#9933FF;" parent="WIyWlLk6GJQsqaUBKTNV-1" source="cdMNv2cXZE7cJ5Rc2gCe-15" target="BtG-tf63-TLNFFF7PTQk-3" edge="1">
          <mxGeometry width="50" height="50" relative="1" as="geometry">
            <mxPoint x="430" y="330" as="sourcePoint" />
            <mxPoint x="660" y="270" as="targetPoint" />
            <Array as="points">
              <mxPoint x="890" y="210" />
              <mxPoint x="890" y="150" />
            </Array>
          </mxGeometry>
        </mxCell>
        <mxCell id="BtG-tf63-TLNFFF7PTQk-11" value="" style="endArrow=classic;html=1;rounded=0;entryX=0;entryY=0.5;entryDx=0;entryDy=0;strokeColor=#007FFF;exitX=1.005;exitY=0.378;exitDx=0;exitDy=0;exitPerimeter=0;" parent="WIyWlLk6GJQsqaUBKTNV-1" source="cdMNv2cXZE7cJ5Rc2gCe-15" target="BtG-tf63-TLNFFF7PTQk-0" edge="1">
          <mxGeometry width="50" height="50" relative="1" as="geometry">
            <mxPoint x="610" y="180" as="sourcePoint" />
            <mxPoint x="660" y="270" as="targetPoint" />
            <Array as="points">
              <mxPoint x="890" y="230" />
              <mxPoint x="890" y="282" />
            </Array>
          </mxGeometry>
        </mxCell>
        <mxCell id="BtG-tf63-TLNFFF7PTQk-13" value="" style="endArrow=classic;html=1;rounded=0;exitX=1;exitY=0;exitDx=0;exitDy=0;entryX=0;entryY=0.5;entryDx=0;entryDy=0;strokeColor=#FF6666;" parent="WIyWlLk6GJQsqaUBKTNV-1" source="cdMNv2cXZE7cJ5Rc2gCe-21" target="BtG-tf63-TLNFFF7PTQk-1" edge="1">
          <mxGeometry width="50" height="50" relative="1" as="geometry">
            <mxPoint x="460" y="450" as="sourcePoint" />
            <mxPoint x="510" y="400" as="targetPoint" />
            <Array as="points">
              <mxPoint x="760" y="430" />
              <mxPoint x="760" y="410" />
            </Array>
          </mxGeometry>
        </mxCell>
        <mxCell id="BtG-tf63-TLNFFF7PTQk-14" value="" style="endArrow=classic;html=1;rounded=0;entryX=0;entryY=0.5;entryDx=0;entryDy=0;exitX=1;exitY=0.5;exitDx=0;exitDy=0;strokeColor=#33FF33;" parent="WIyWlLk6GJQsqaUBKTNV-1" source="cdMNv2cXZE7cJ5Rc2gCe-21" target="BtG-tf63-TLNFFF7PTQk-2" edge="1">
          <mxGeometry width="50" height="50" relative="1" as="geometry">
            <mxPoint x="460" y="450" as="sourcePoint" />
            <mxPoint x="510" y="400" as="targetPoint" />
            <Array as="points">
              <mxPoint x="660" y="454" />
              <mxPoint x="660" y="530" />
            </Array>
          </mxGeometry>
        </mxCell>
        <mxCell id="BtG-tf63-TLNFFF7PTQk-20" value="" style="endArrow=classic;html=1;rounded=0;entryX=0;entryY=0.5;entryDx=0;entryDy=0;exitX=1;exitY=0.25;exitDx=0;exitDy=0;strokeColor=#FF6666;" parent="WIyWlLk6GJQsqaUBKTNV-1" source="cdMNv2cXZE7cJ5Rc2gCe-9" target="BtG-tf63-TLNFFF7PTQk-1" edge="1">
          <mxGeometry width="50" height="50" relative="1" as="geometry">
            <mxPoint x="360" y="410" as="sourcePoint" />
            <mxPoint x="410" y="360" as="targetPoint" />
            <Array as="points">
              <mxPoint x="680" y="333" />
              <mxPoint x="760" y="333" />
              <mxPoint x="760" y="410" />
            </Array>
          </mxGeometry>
        </mxCell>
        <mxCell id="BtG-tf63-TLNFFF7PTQk-21" value="&amp;lt;&amp;lt;Agregación&amp;gt;&amp;gt;" style="text;html=1;align=center;verticalAlign=middle;resizable=0;points=[];autosize=1;strokeColor=none;fillColor=none;" parent="WIyWlLk6GJQsqaUBKTNV-1" vertex="1">
          <mxGeometry x="70" y="210" width="110" height="30" as="geometry" />
        </mxCell>
        <mxCell id="BtG-tf63-TLNFFF7PTQk-22" value="&amp;lt;&amp;lt;Agregación&amp;gt;&amp;gt;" style="text;html=1;align=center;verticalAlign=middle;resizable=0;points=[];autosize=1;strokeColor=none;fillColor=none;" parent="WIyWlLk6GJQsqaUBKTNV-1" vertex="1">
          <mxGeometry x="70" y="428" width="110" height="30" as="geometry" />
        </mxCell>
        <mxCell id="BtG-tf63-TLNFFF7PTQk-23" value="&amp;lt;&amp;lt;Composición&amp;gt;&amp;gt;" style="text;html=1;align=center;verticalAlign=middle;resizable=0;points=[];autosize=1;strokeColor=none;fillColor=none;" parent="WIyWlLk6GJQsqaUBKTNV-1" vertex="1">
          <mxGeometry x="320" y="428" width="120" height="30" as="geometry" />
        </mxCell>
        <mxCell id="BtG-tf63-TLNFFF7PTQk-24" value="&amp;lt;&amp;lt;Composición&amp;gt;&amp;gt;" style="text;html=1;align=center;verticalAlign=middle;resizable=0;points=[];autosize=1;strokeColor=none;fillColor=none;" parent="WIyWlLk6GJQsqaUBKTNV-1" vertex="1">
          <mxGeometry x="320" y="210" width="120" height="30" as="geometry" />
        </mxCell>
        <mxCell id="sW0v3c9CCjXVlgfquyFi-0" value="" style="endArrow=classic;html=1;rounded=0;entryX=0;entryY=0.5;entryDx=0;entryDy=0;exitX=1;exitY=0.5;exitDx=0;exitDy=0;strokeColor=#33FF33;" edge="1" parent="WIyWlLk6GJQsqaUBKTNV-1" source="cdMNv2cXZE7cJ5Rc2gCe-9" target="BtG-tf63-TLNFFF7PTQk-2">
          <mxGeometry width="50" height="50" relative="1" as="geometry">
            <mxPoint x="600" y="340" as="sourcePoint" />
            <mxPoint x="600" y="320" as="targetPoint" />
            <Array as="points">
              <mxPoint x="660" y="346" />
              <mxPoint x="660" y="530" />
            </Array>
          </mxGeometry>
        </mxCell>
        <mxCell id="sW0v3c9CCjXVlgfquyFi-1" value="" style="endArrow=classic;html=1;rounded=0;entryX=0;entryY=0.5;entryDx=0;entryDy=0;exitX=0.998;exitY=1.028;exitDx=0;exitDy=0;strokeColor=#33FF33;exitPerimeter=0;" edge="1" parent="WIyWlLk6GJQsqaUBKTNV-1" source="cdMNv2cXZE7cJ5Rc2gCe-16" target="BtG-tf63-TLNFFF7PTQk-2">
          <mxGeometry width="50" height="50" relative="1" as="geometry">
            <mxPoint x="550" y="370" as="sourcePoint" />
            <mxPoint x="600" y="320" as="targetPoint" />
            <Array as="points">
              <mxPoint x="660" y="263" />
              <mxPoint x="660" y="530" />
              <mxPoint x="760" y="530" />
            </Array>
          </mxGeometry>
        </mxCell>
        <mxCell id="sW0v3c9CCjXVlgfquyFi-2" value="Eliminar usuario" style="text;html=1;align=center;verticalAlign=middle;resizable=0;points=[];autosize=1;strokeColor=none;fillColor=none;fontColor=#9933FF;" vertex="1" parent="WIyWlLk6GJQsqaUBKTNV-1">
          <mxGeometry x="685" y="180" width="110" height="30" as="geometry" />
        </mxCell>
        <mxCell id="sW0v3c9CCjXVlgfquyFi-3" value="Cambiar contraseña" style="text;html=1;align=center;verticalAlign=middle;resizable=0;points=[];autosize=1;strokeColor=none;fillColor=none;fontColor=#007FFF;" vertex="1" parent="WIyWlLk6GJQsqaUBKTNV-1">
          <mxGeometry x="760" y="231" width="130" height="30" as="geometry" />
        </mxCell>
        <mxCell id="sW0v3c9CCjXVlgfquyFi-4" value="Crear usuario" style="text;html=1;align=center;verticalAlign=middle;resizable=0;points=[];autosize=1;strokeColor=none;fillColor=none;fontColor=#FF6666;" vertex="1" parent="WIyWlLk6GJQsqaUBKTNV-1">
          <mxGeometry x="660" y="243" width="100" height="30" as="geometry" />
        </mxCell>
        <mxCell id="sW0v3c9CCjXVlgfquyFi-5" value="Estado&lt;br&gt;online" style="text;html=1;align=center;verticalAlign=middle;resizable=0;points=[];autosize=1;strokeColor=none;fillColor=none;fontColor=#33FF33;" vertex="1" parent="WIyWlLk6GJQsqaUBKTNV-1">
          <mxGeometry x="600" y="348" width="60" height="40" as="geometry" />
        </mxCell>
        <mxCell id="sW0v3c9CCjXVlgfquyFi-6" value="Usuarios disponibles&lt;br&gt;Credenciales" style="text;html=1;align=right;verticalAlign=middle;resizable=0;points=[];autosize=1;strokeColor=none;fillColor=none;fontColor=#33FF33;" vertex="1" parent="WIyWlLk6GJQsqaUBKTNV-1">
          <mxGeometry x="530" y="262" width="130" height="40" as="geometry" />
        </mxCell>
        <mxCell id="sW0v3c9CCjXVlgfquyFi-7" value="Cargar&lt;br&gt;mensajes" style="text;html=1;align=center;verticalAlign=middle;resizable=0;points=[];autosize=1;strokeColor=none;fillColor=none;fontColor=#33FF33;" vertex="1" parent="WIyWlLk6GJQsqaUBKTNV-1">
          <mxGeometry x="590" y="458" width="70" height="40" as="geometry" />
        </mxCell>
        <mxCell id="sW0v3c9CCjXVlgfquyFi-8" value="Enviar&lt;br&gt;mensaje" style="text;html=1;align=center;verticalAlign=middle;resizable=0;points=[];autosize=1;strokeColor=none;fillColor=none;fontColor=#FF6666;" vertex="1" parent="WIyWlLk6GJQsqaUBKTNV-1">
          <mxGeometry x="690" y="388" width="70" height="40" as="geometry" />
        </mxCell>
        <mxCell id="sW0v3c9CCjXVlgfquyFi-9" value="Actualizar&lt;br&gt;estado" style="text;html=1;align=center;verticalAlign=middle;resizable=0;points=[];autosize=1;strokeColor=none;fillColor=none;fontColor=#FF6666;" vertex="1" parent="WIyWlLk6GJQsqaUBKTNV-1">
          <mxGeometry x="680" y="290" width="80" height="40" as="geometry" />
        </mxCell>
      </root>
    </mxGraphModel>
  </diagram>
</mxfile>
